<svg xmlns="http://www.w3.org/2000/svg" xmlns:xlink="http://www.w3.org/1999/xlink" width="108" height="108" viewBox="0 0 108 108">
  <defs>
    <filter id="Rectangle_1" x="0" y="0" width="108" height="108" filterUnits="userSpaceOnUse">
      <feOffset dy="3" input="SourceAlpha"/>
      <feGaussianBlur stdDeviation="3" result="blur"/>
      <feFlood flood-opacity="0.161"/>
      <feComposite operator="in" in2="blur"/>
      <feComposite in="SourceGraphic"/>
    </filter>
  </defs>
  <g id="Group_37259" data-name="Group 37259" transform="translate(9 6.043)">
    <g transform="matrix(1, 0, 0, 1, -9, -6.04)" filter="url(#Rectangle_1)">
      <g id="Rectangle_1-2" data-name="Rectangle 1" transform="translate(9 6)" fill="#ffc72b" stroke="#fff" stroke-width="4">
        <rect width="90" height="90" rx="8" stroke="none"/>
        <rect x="2" y="2" width="86" height="86" rx="6" fill="none"/>
      </g>
    </g>
    <g id="broom" transform="translate(15.449 15.406)">
      <path id="Path_1" data-name="Path 1" d="M58.349.5a1.72,1.72,0,0,0-2.433,0L33.362,23.058a10.908,10.908,0,0,0-14.322.734L.857,36.7a1.721,1.721,0,0,0-.221,2.619L19.565,58.248a1.721,1.721,0,0,0,2.658-.278l12.242-18.8A10.912,10.912,0,0,0,35.7,25.588L58.349,2.937a1.72,1.72,0,0,0,0-2.433ZM26.62,24.159a7.461,7.461,0,0,1,6.346,11.368L22.706,25.267a7.407,7.407,0,0,1,3.915-1.107ZM20.5,54.314,17.7,51.52l4.962-7.443A1.72,1.72,0,0,0,19.8,42.169l-4.58,6.87L4.509,38.326,19.944,27.37,30.906,38.332Z" transform="translate(-0.132 -0.001)"/>
    </g>
  </g>
</svg>
