<svg version="1.1" xmlns="http://www.w3.org/2000/svg" x="0" y="0" width="24" height="24" viewBox="0 0 24 24" xml:space="preserve" enable-background="new 0 0 24 24"><title>files coding edit 1</title><g class="nc-icon-wrapper" fill="#111111"><path fill="none" id="Frame_-_24px" d="M0 0h24v24H0z"/><g id="Line_Icons"><path fill="#111111" d="M11 13.002h1v3.989h-1z"/><path fill="#111111" d="M8 17h1v-.008h1v-3.989H8z"/><path fill="#111111" d="M7 8.003h3v4H7z"/><path fill="#111111" d="M4 8.004h2v3.998H4z"/><path fill="#111111" d="M11 12.003l1-.001v-1.01h1V8.003h-2z"/><path fill="#111111" d="M4 13.003h3V17H4z"/><path d="M2 2h10v4h4v4.992h2V4.586L13.414 0H2C.897 0 0 .896 0 2v18c0 1.103.897 2 2 2h7v-2H2V2z" fill="#111111"/><path d="M23.707 14.293l-3-3a.999.999 0 0 0-1.414 0l-7 7a.997.997 0 0 0-.263.465l-1 4a1 1 0 0 0 1.213 1.213l4-1a1 1 0 0 0 .464-.264l7-7a.999.999 0 0 0 0-1.414zm-8.218 6.804l-2.114.529.528-2.114L17 16.414 18.586 18l-3.097 3.097zM20 16.586L18.414 15 20 13.414 21.586 15 20 16.586z" fill="#111111"/></g></g></svg>