<svg version="1.1" xmlns="http://www.w3.org/2000/svg" x="0" y="0" width="32" height="32" viewBox="0 0 24 24" xml:space="preserve"><title>oil jerry can</title><g class="nc-icon-wrapper" fill="#111111"><path fill="none" id="Frame_-_24px" d="M.001 0h24v24.002h-24z"/><g id="Filled_Icons"><path transform="rotate(-45.001 4.818 7.182)" fill="#111111" d="M2.525 5.682H7.11v3H2.525z"/><path fill="#111111" d="M20 2h-6a2 2 0 0 0-2 2v3H9l-5 5v8a2 2 0 0 0 2 2h14a2 2 0 0 0 2-2V4a2 2 0 0 0-2-2zm-1.293 16.293l-1.414 1.413L14 16.414l-3.293 3.292-1.414-1.413L12.586 15l-3.293-3.293 1.414-1.413L14 13.586l3.293-3.293 1.414 1.413L15.414 15l3.293 3.293zM20 6h-6V4h6v2z"/></g></g></svg>