<svg xmlns="http://www.w3.org/2000/svg" width="98.584" height="38.387" viewBox="0 0 98.584 38.387">
  <g id="Camada_2" data-name="Camada 2" transform="translate(-154.036 0.02)">
    <g id="Camada_1" data-name="Camada 1" transform="translate(0 -0.02)">
      <path id="Path_45" data-name="Path 45" d="M1931.944,233.946a.764.764,0,0,1-.406.056c-1.286,0-2.574-.005-3.861.006a.85.85,0,0,1-.665-.273,3.88,3.88,0,0,1-.851-1.184,2.4,2.4,0,0,1-.2-.963c.005-2.879,0-5.758,0-8.638a4.261,4.261,0,0,0-.255-1.559,1.978,1.978,0,0,0-2.051-1.378,2.59,2.59,0,0,0-2.649,2.568,6.125,6.125,0,0,0-.018.676c0,2.733.015,5.467-.011,8.2a2.763,2.763,0,0,0,.729,1.913c.172.2.37.373.557.558-.069.122-.173.073-.254.074-1.354,0-2.707,0-4.061.007a.7.7,0,0,1-.526-.217,4,4,0,0,1-.774-.954,2.649,2.649,0,0,1-.34-1.287c.011-2.973,0-5.945.009-8.917a3.029,3.029,0,0,0-.352-1.411,2.432,2.432,0,0,0-3.656-.729,3.848,3.848,0,0,0-1.122,1.519,1.086,1.086,0,0,0-.051.468V233.5c0,.493,0,.493-.513.493h-3.747c-.448,0-.413.025-.413-.4V216.242c0-.494-.019-.428.425-.428h3.941c.3,0,.3-.015.3.307v1.549a6.017,6.017,0,0,1,4.874-2.1,5.243,5.243,0,0,1,4.474,2.612,5.075,5.075,0,0,1,3.747-2.271,7.8,7.8,0,0,1,2.615-.057,4.3,4.3,0,0,1,3.547,3.088,4.577,4.577,0,0,1,.249,1.521c-.008,3.662.007,7.324-.014,10.986a2.786,2.786,0,0,0,.729,1.913A7.881,7.881,0,0,0,1931.944,233.946Z" transform="translate(-1732.768 -195.923)" fill="#62666d"/>
      <path id="Path_46" data-name="Path 46" d="M2579.12,218.482c.1,0,.182-.012.261-.012h4.9c.325,0,.326,0,.414.328l3.188,11.922c.031.115.066.229.1.354.1-.059.108-.159.134-.253q1.591-5.962,3.189-11.923a.075.075,0,0,1,.007-.039c.1-.386.1-.387.492-.387h4.935c.061.138-.021.241-.057.343q-3.087,8.776-6.184,17.549c-.131.374-.072.324-.432.325q-2.289,0-4.577,0c-.225,0-.345-.043-.426-.285q-2.952-8.886-5.922-17.766A1.236,1.236,0,0,1,2579.12,218.482Z" transform="translate(-2344.141 -198.564)" fill="#62666d"/>
      <path id="Path_47" data-name="Path 47" d="M2056.488,15.4a3.413,3.413,0,0,1,1.149.878c.165.172.332.343.507.5a1.449,1.449,0,0,0,.875.444,1.6,1.6,0,0,1-2.26.189,7.3,7.3,0,0,1-.773-.958,3.888,3.888,0,0,0-.946-.989c.135-.149.328-.164.477-.253a.889.889,0,0,0,.485-1.093.665.665,0,0,0-.662-.523,4.435,4.435,0,0,0-.787.1c-.124.013-.124.1-.1.206.1.572.2,1.147.3,1.721.139.782.279,1.563.425,2.343.029.157.016.244-.174.267-.288.036-.572.1-.86.149-.3.049-.309.046-.36-.231-.091-.481-.167-.965-.252-1.447q-.3-1.719-.609-3.439c-.01-.052-.016-.106-.027-.157-.039-.156,0-.25.177-.273.82-.125,1.64-.314,2.468-.4a2.043,2.043,0,0,1,.785.091,1.522,1.522,0,0,1,.391,2.759C2056.649,15.313,2056.591,15.344,2056.488,15.4Z" transform="translate(-1865.841 -11.295)" fill="#62666d"/>
      <path id="Path_48" data-name="Path 48" d="M2395.719,21.133a1.6,1.6,0,0,1-2.182-.676,6.363,6.363,0,0,1-.306-.9c-.074-.254-.156-.506-.235-.758a3.584,3.584,0,0,0-.358-.723c.234-.035.455-.052.667-.1a.836.836,0,0,0,.649-.58.72.72,0,0,0-.5-1c-.766-.264-.805-.234-.943.547-.207,1.173-.43,2.344-.638,3.518-.033.182-.1.248-.29.2-.365-.082-.729-.144-1.127-.222.342-1.86.68-3.7,1.02-5.558.838.159,1.631.307,2.421.463a2.414,2.414,0,0,1,.911.384,1.461,1.461,0,0,1,.638,1.558,1.44,1.44,0,0,1-1.185,1.184c-.063.015-.126.032-.239.061a4.818,4.818,0,0,1,.924,1.611A2.118,2.118,0,0,0,2395.719,21.133Z" transform="translate(-2172.669 -13.522)" fill="#62666d"/>
      <path id="Path_49" data-name="Path 49" d="M2205.9,3.336c-.573.045-1.155.036-1.736.049-.422.011-.394-.07-.374.382a1.993,1.993,0,0,0,.05.781h.751c.557-.006,1.113-.012,1.669-.023.322-.006.318-.026.316.328,0,.182,0,.372.008.557s-.056.226-.228.226c-.675,0-1.351.01-2.027.021-.547.008-1.086.017-1.629.038-.2.007-.273-.045-.281-.261q-.024-2.564-.072-5.128c0-.208.059-.268.266-.273,1.179-.01,2.358-.036,3.538-.052.284,0,.3,0,.3.273s.109.584-.039.77-.474.056-.719.063c-.557.016-1.114.02-1.67.018-.2,0-.292.055-.273.273a5.025,5.025,0,0,1,.01.675c-.005.174.067.226.236.222.531-.014,1.061-.016,1.591-.019.331,0,.333,0,.34.348v.638a.343.343,0,0,1-.029.094Z" transform="translate(-2001.698 0.02)" fill="#62666d"/>
      <path id="Path_50" data-name="Path 50" d="M1982.292,25.076c.076.305.158.572.206.845.035.2.091.264.311.2.521-.151,1.051-.266,1.579-.394.273-.067.273-.065.347.213.049.192.091.386.147.577.048.164,0,.242-.17.281-.541.128-1.08.263-1.619.4-.253.064-.255.068-.19.339s.137.559.212.858l2.369-.579c.317-.077.322-.077.371.237.039.255.223.563.066.751-.133.158-.456.159-.7.22q-1.425.355-2.852.7c-.343.084-.344.082-.426-.249q-.6-2.446-1.2-4.893c-.064-.26-.061-.263.207-.331q1.693-.424,3.388-.844c.313-.078.317-.074.4.246a4.335,4.335,0,0,0,.126.5c.079.21-.011.282-.2.327q-1.022.243-2.044.5C1982.52,25,1982.421,25.038,1982.292,25.076Z" transform="translate(-1800.245 -21.237)" fill="#62666d"/>
      <path id="Path_51" data-name="Path 51" d="M2122.246,1.773c.419-.043.843-.07,1.26-.135.22-.035.3.043.369.236.391,1.11.794,2.216,1.193,3.323.062.173.127.345.2.547.152-.135.1-.3.127-.445s.049-.287.07-.432c.157-1.088.317-2.176.464-3.264.024-.178.077-.25.263-.261.383-.025.764-.078,1.152-.121.113.118.038.255.015.374-.331,1.716-.676,3.428-1,5.145a.335.335,0,0,1-.355.325c-.423.038-.847.067-1.265.136a.3.3,0,0,1-.385-.214c-.393-.954-.8-1.9-1.2-2.854l-.891-2.122a.227.227,0,0,1-.017-.237Z" transform="translate(-1928.869 -1.107)" fill="#62666d"/>
      <path id="Path_52" data-name="Path 52" d="M1916.159,44.375a4.875,4.875,0,0,0-1.221.189,1.427,1.427,0,0,0-1.153,1.223,2.323,2.323,0,0,0,.722,1.982,1.42,1.42,0,0,0,1.388.248,2.641,2.641,0,0,0,1.219-.642c.075-.069.125-.175.244-.188a1.328,1.328,0,0,1-.424,1.488,2.763,2.763,0,0,1-1.554.643,2.449,2.449,0,0,1-2.578-1.342,3.3,3.3,0,0,1-.433-2.293,2.476,2.476,0,0,1,1.093-1.64,3.754,3.754,0,0,1,2.1-.631c.169,0,.273.041.326.21C1915.962,43.858,1916.055,44.09,1916.159,44.375Z" transform="translate(-1738.086 -39.453)" fill="#62666d"/>
      <path id="Path_53" data-name="Path 53" d="M2268.08,6.1c.216.046.392.1.57.118.507.064.705-.1.754-.615.008-.091.006-.182.01-.278.046-1.15.091-2.3.14-3.45.014-.3.025-.3.309-.3s.582.017.874.019c.151,0,.21.061.2.216-.027.5-.046,1-.066,1.506q-.047,1.172-.091,2.341a2.463,2.463,0,0,1-.229.956,1.446,1.446,0,0,1-2.13.364A1.281,1.281,0,0,1,2268.08,6.1Z" transform="translate(-2061.439 -1.434)" fill="#62666d"/>
      <path id="Path_54" data-name="Path 54" d="M2465.654,37.133a9.118,9.118,0,0,0-.919-.218c-.245-.035-.238-.155-.2-.329q.24-.981.476-1.964l.71-2.927c.082-.338.083-.338.419-.256.273.065.537.141.809.193.183.034.2.106.159.273-.3,1.2-.588,2.413-.88,3.62-.116.475-.237.948-.344,1.425C2465.856,37.084,2465.823,37.177,2465.654,37.133Z" transform="translate(-2239.978 -28.532)" fill="#62666d"/>
      <path id="Path_55" data-name="Path 55" d="M2222.059,168.1a8.029,8.029,0,0,0-3.4-3.827,5.967,5.967,0,0,0-3.949-.711,6.671,6.671,0,0,0-3.688,1.965c-.067.066-.115.169-.255.189v-7.3c0-.494.076-.433-.45-.434h-3.86c-.522,0-.45-.047-.45.439v23c0,.3,0,.31.3.31h4.178c.273,0,.281-.005.282-.283v-1.921a8.784,8.784,0,0,0,1.057.971,6.054,6.054,0,0,0,5.927.968,7.092,7.092,0,0,0,3.524-2.855,10.234,10.234,0,0,0,1.7-4.9A10.843,10.843,0,0,0,2222.059,168.1Zm-4.61,7.269a4.5,4.5,0,0,1-1.165,1.593,2.975,2.975,0,0,1-4.111-.064,4.977,4.977,0,0,1-1.4-2.36,5.893,5.893,0,0,1-.25-1.511,6.41,6.41,0,0,1,.868-3.474,4.362,4.362,0,0,1,.638-.812,3.02,3.02,0,0,1,4.543.066,5.332,5.332,0,0,1,1.345,2.83,6.306,6.306,0,0,1-.465,3.728Z" transform="translate(-2005.017 -143.593)" fill="#62666d"/>
      <path id="Path_56" data-name="Path 56" d="M1707.715,236.272a1.757,1.757,0,0,1,0-.238V218.719c0-.386,0-.348-.341-.348h-4.06c-.326,0-.329,0-.33.316v1.786l-.074.048c-.119-.118-.237-.239-.357-.355a6.247,6.247,0,0,0-8.845-.113,8.259,8.259,0,0,0-1.759,2.3,10.957,10.957,0,0,0-.673,8.634,8.547,8.547,0,0,0,3.035,4.373,6.056,6.056,0,0,0,4.951,1.165,6.624,6.624,0,0,0,3.4-1.87.887.887,0,0,1,.323-.265v1.859c0,.282.005.287.279.287q2.089,0,4.179,0C1707.637,236.532,1707.746,236.493,1707.715,236.272Zm-5.2-5.825a4.144,4.144,0,0,1-1.21,1.458,2.932,2.932,0,0,1-3.773-.086,4.958,4.958,0,0,1-1.614-2.72,5.093,5.093,0,0,1-.182-1.33,6.035,6.035,0,0,1,1.213-3.91,3.328,3.328,0,0,1,1.966-1.263,2.9,2.9,0,0,1,2.517.687,4.871,4.871,0,0,1,1.59,2.689A6.266,6.266,0,0,1,1702.517,230.447Z" transform="translate(-1536.659 -198.385)" fill="#62666d"/>
      <path id="Path_57" data-name="Path 57" d="M2421.125,218.806a8.088,8.088,0,0,0-6.361-3.632,7.651,7.651,0,0,0-6.17,2.5,10.03,10.03,0,0,0-2.767,7.506,8.216,8.216,0,0,0,2.238,5.467,9.533,9.533,0,0,0,3,2.191,10.273,10.273,0,0,0,6.881.844,6.11,6.11,0,0,0,3.225-1.848.723.723,0,0,0,.2-.533c-.01-1.048,0-2.1-.006-3.143,0-.086.038-.182-.035-.258-.028.007-.06.006-.072.021a4.659,4.659,0,0,1-2.051,1.387,10.7,10.7,0,0,1-5.165.539,4.634,4.634,0,0,1-2.03-.753,3.785,3.785,0,0,1-1.65-2.667h12.024c.364,0,.364,0,.413-.364.048-.382.091-.763.1-1.148A9.739,9.739,0,0,0,2421.125,218.806Zm-10.757,4.378a4.223,4.223,0,0,1,8.28,0Z" transform="translate(-2186.632 -195.556)" fill="#62666d"/>
      <path id="Path_58" data-name="Path 58" d="M2319.16,12.007l-.369-2.192c-.166-.992-.329-1.985-.5-2.977-.051-.3-.063-.311-.375-.346-.435-.05-.871-.079-1.3-.145-.191-.029-.254.044-.32.2-.729,1.717-1.458,3.431-2.216,5.212.415.047.78.082,1.143.133a.252.252,0,0,0,.316-.21c.064-.2.161-.393.224-.593.057-.176.138-.255.341-.224.419.064.841.109,1.263.145.174.015.221.1.235.251.021.237.061.472.091.709.014.117.05.214.182.22a12.853,12.853,0,0,0,1.287.107A.438.438,0,0,0,2319.16,12.007Zm-2.875-2.228.773-2a16.624,16.624,0,0,1,.357,2.127Z" transform="translate(-2103.248 -5.761)" fill="#62666d"/>
      <path id="Path_59" data-name="Path 59" d="M2501.2,47.115c-.406-.12-.807-.254-1.21-.381-.335-.106-.336-.106-.533.182q-1.473,2.17-2.943,4.339a.408.408,0,0,0-.123.269c.353.115.713.231,1.073.35a.217.217,0,0,0,.3-.115c.116-.208.259-.4.374-.609a.24.24,0,0,1,.323-.134c.413.136.829.273,1.247.394a.218.218,0,0,1,.176.261c-.017.251-.016.5-.032.755a.216.216,0,0,0,.182.254c.331.091.655.21.985.307.222.066.234.052.256-.2,0-.052,0-.106.006-.159.047-1.736.091-3.47.143-5.206A.263.263,0,0,0,2501.2,47.115Zm-1.234,3.189c-.383-.046-.694-.219-1.093-.3l1.155-1.829.078.017C2500.058,48.886,2500.012,49.58,2499.964,50.3Z" transform="translate(-2268.947 -42.416)" fill="#62666d"/>
    </g>
  </g>
</svg>
